<?xml version="1.0" standalone="no"?>
<!DOCTYPE svg PUBLIC "-//W3C//DTD SVG 20010904//EN"
 "http://www.w3.org/TR/2001/REC-SVG-20010904/DTD/svg10.dtd">
<svg version="1.0" xmlns="http://www.w3.org/2000/svg"
 width="840.000000pt" height="531.000000pt" viewBox="0 0 840.000000 531.000000"
 preserveAspectRatio="xMidYMid meet">

<g transform="translate(0.000000,531.000000) scale(0.100000,-0.100000)"
fill="#000000" stroke="none">
<path d="M3955 4869 c-110 -11 -202 -33 -235 -58 -24 -18 -25 -23 -22 -102 7
-222 71 -345 216 -420 l64 -33 -37 -17 c-60 -27 -72 -48 -78 -136 -5 -64 -10
-83 -30 -104 -23 -25 -24 -33 -22 -131 1 -101 0 -106 -25 -131 -23 -23 -26
-34 -28 -107 -1 -44 -2 -90 -2 -102 -1 -12 -13 -34 -28 -49 -16 -15 -28 -34
-28 -41 0 -8 -19 -19 -42 -25 -24 -6 -59 -22 -78 -35 -38 -26 -89 -109 -90
-145 l0 -23 -347 0 -346 0 -52 25 c-147 69 -355 48 -439 -45 -63 -70 -68 -147
-14 -216 l21 -27 -22 13 c-13 6 -24 10 -26 8 -2 -2 -26 -44 -54 -93 -36 -65
-47 -93 -39 -102 22 -27 124 -55 214 -60 75 -5 104 -2 166 17 41 12 85 20 98
18 27 -3 70 -68 70 -105 0 -12 -18 -91 -40 -175 -22 -84 -40 -159 -40 -165 0
-10 30 -13 115 -13 63 0 115 -2 115 -6 0 -3 43 -235 95 -517 112 -602 114
-609 244 -737 73 -72 96 -86 529 -323 249 -137 459 -247 466 -245 7 2 217 115
467 253 420 231 459 255 520 316 49 49 78 89 108 150 43 90 32 35 191 909 17
91 32 174 35 185 2 12 27 32 61 49 92 48 137 143 100 214 -16 32 -16 33 31
122 l48 90 92 0 92 0 12 55 c11 50 15 55 39 55 55 0 132 31 176 72 75 69 83
158 20 221 -52 52 -84 57 -388 57 -272 0 -276 0 -330 25 -115 53 -280 53 -412
0 -39 -15 -83 -25 -114 -25 -48 0 -52 2 -52 23 0 13 -11 46 -25 75 -26 55 -81
96 -144 108 -25 5 -36 14 -43 36 -6 15 -19 33 -29 38 -10 6 -18 18 -17 28 1 9
0 54 0 99 -2 73 -5 85 -29 113 -26 31 -27 36 -24 134 2 96 1 105 -22 132 -19
23 -25 45 -30 101 -7 90 -16 107 -74 137 l-47 23 45 20 c105 48 172 121 207
229 22 64 46 253 36 279 -8 21 -66 49 -129 64 -126 29 -424 38 -620 20z m503
-44 c121 -15 202 -38 202 -57 0 -6 -8 -7 -17 -3 -10 3 -45 13 -79 21 -55 12
-106 17 -347 29 -77 4 -249 -6 -356 -21 -37 -5 -52 -4 -48 3 6 10 108 28 207
37 100 9 330 4 438 -9z m15 -40 c125 -16 180 -39 185 -74 l4 -23 -23 21 c-25
23 -59 27 -90 10 -16 -8 -25 -7 -40 7 -29 26 -116 30 -154 6 -29 -18 -31 -18
-62 1 -42 24 -131 26 -182 2 -35 -16 -41 -16 -69 -1 -42 22 -110 20 -148 -3
-20 -12 -36 -16 -45 -10 -8 5 -25 9 -39 10 -16 1 -19 3 -8 6 9 2 15 10 12 17
-5 13 81 31 181 39 115 10 382 5 478 -8z m-723 -20 c-7 -9 -15 -13 -17 -11 -7
7 7 26 19 26 6 0 6 -6 -2 -15z m7 -53 c-14 -17 -22 0 -12 26 5 14 7 14 15 2 5
-9 4 -20 -3 -28z m277 8 c38 -19 39 -19 77 0 49 25 121 25 176 1 41 -19 42
-19 80 0 45 24 99 21 140 -9 25 -18 31 -18 48 -6 27 20 52 17 76 -7 19 -19 21
-29 16 -87 -8 -82 -37 -141 -92 -189 -40 -35 -165 -110 -165 -100 0 3 29 22
65 42 61 33 86 55 49 41 -14 -5 -15 -4 -4 9 14 17 35 21 25 5 -10 -17 12 -11
26 7 12 15 12 16 -3 10 -22 -8 -23 6 -3 23 8 7 15 17 15 23 0 6 -15 -5 -33
-25 -18 -19 -65 -52 -104 -71 -39 -20 -74 -41 -78 -47 -3 -5 -11 -10 -17 -10
-15 0 30 34 78 58 46 24 104 84 104 110 0 10 -9 3 -25 -20 -13 -20 -53 -53
-87 -74 -35 -20 -73 -46 -85 -57 -13 -11 -25 -18 -29 -15 -6 6 13 21 90 71 59
38 84 70 91 117 5 32 5 33 -5 10 -21 -48 -62 -91 -115 -121 -29 -16 -65 -42
-79 -56 -14 -14 -26 -21 -26 -15 0 10 35 42 104 95 38 29 77 93 75 124 0 11
-7 4 -16 -17 -18 -42 -67 -96 -107 -117 -15 -8 -49 -33 -74 -56 -25 -23 -40
-33 -34 -22 5 11 38 45 72 74 67 58 100 104 99 136 0 13 -6 7 -20 -21 -13 -26
-44 -59 -90 -94 -39 -29 -77 -66 -85 -82 -15 -29 -24 -36 -24 -18 0 5 24 38
54 73 60 71 79 103 73 120 -2 7 -11 -1 -20 -18 -9 -16 -41 -57 -71 -90 -31
-32 -56 -65 -56 -71 0 -7 -4 -16 -10 -19 -19 -12 -10 11 29 76 37 62 69 139
39 95 -7 -10 -30 -40 -51 -66 -20 -27 -45 -65 -54 -87 -12 -28 -18 -33 -21
-20 -2 11 13 52 33 92 21 40 35 79 33 86 -3 8 -12 -2 -21 -24 -9 -21 -30 -55
-47 -75 -20 -24 -30 -48 -30 -70 0 -45 -20 -49 -86 -17 -59 29 -93 71 -95 115
0 14 -5 34 -10 45 -7 15 -8 8 -5 -27 2 -26 0 -45 -5 -42 -5 3 -9 15 -9 27 0
27 -19 61 -21 37 -1 -23 -29 58 -40 118 -10 51 -5 92 10 92 4 0 8 -17 9 -37 3
-55 22 -142 32 -148 4 -3 6 5 2 17 -4 17 -2 20 13 15 14 -6 16 -3 12 15 -3 13
-9 57 -13 98 l-7 74 27 -18 c25 -16 29 -16 45 -2 43 39 100 45 155 16z m522
-329 c-30 -31 -144 -97 -153 -88 -3 3 21 19 53 36 33 16 73 41 89 55 40 34 45
32 11 -3z m-126 -25 c0 -2 -7 -7 -16 -10 -8 -3 -12 -2 -9 4 6 10 25 14 25 6z
m-40 -21 c0 -2 -10 -9 -22 -15 -22 -11 -22 -10 -4 4 21 17 26 19 26 11z m-56
-34 c17 -7 -212 -4 -244 3 -8 2 39 4 105 4 66 0 128 -3 139 -7z m21 -37 c8 -4
13 -10 10 -14 -7 -11 26 -36 67 -49 43 -14 80 -50 38 -37 -14 4 -32 8 -40 8
-8 0 -20 5 -26 10 -8 5 -14 3 -18 -7 -3 -8 -13 -15 -23 -15 -15 0 -16 2 -3 10
13 8 12 10 -2 10 -10 0 -18 -4 -18 -10 0 -5 -7 -10 -15 -10 -8 0 -15 5 -15 11
0 5 6 7 13 3 6 -4 8 -3 4 2 -4 4 -27 9 -50 9 -23 0 -48 4 -54 8 -7 5 -13 4
-13 -2 0 -5 8 -15 18 -20 9 -6 12 -11 6 -11 -6 0 -17 7 -24 15 -11 13 -15 13
-22 3 -7 -10 -11 -9 -23 5 -13 18 -14 18 -27 -2 -9 -15 -22 -21 -48 -20 l-35
2 32 6 c26 5 30 9 23 21 -8 12 -10 12 -10 1 0 -9 -8 -12 -25 -9 -16 4 -29 0
-34 -10 -7 -13 -10 -11 -16 8 -7 21 -8 21 -17 6 -8 -13 -13 -15 -24 -5 -11 9
-14 9 -14 0 0 -7 -4 -9 -10 -6 -5 3 -19 1 -31 -6 -17 -8 -20 -8 -14 1 4 7 32
23 61 36 31 13 54 30 54 39 0 14 15 20 75 29 37 5 230 -3 250 -10z m-55 -100
c0 -2 -9 -4 -20 -4 -11 0 -20 4 -20 9 0 5 9 7 20 4 11 -3 20 -7 20 -9z m154
-31 c16 -5 31 -14 33 -20 3 -9 -6 -9 -34 0 -24 7 -120 12 -255 12 -199 0 -245
5 -178 18 41 9 402 0 434 -10z m-524 -13 c0 -5 -8 -10 -17 -10 -15 0 -16 2 -3
10 19 12 20 12 20 0z m510 -23 l55 -12 3 -43 3 -44 -33 8 c-42 9 -492 9 -535
0 -33 -8 -33 -8 -33 33 0 22 5 43 10 46 6 4 10 -8 10 -29 0 -32 3 -36 25 -36
22 0 25 4 25 39 0 36 3 40 28 44 60 9 390 4 442 -6z m-13 -107 c40 -4 85 -15
99 -25 14 -9 24 -18 22 -19 -1 -1 -83 1 -182 6 -98 4 -254 4 -346 0 -160 -7
-168 -6 -153 11 9 9 23 17 32 17 14 0 14 -2 1 -10 -12 -8 -9 -10 11 -10 15 0
32 6 39 14 6 8 28 17 48 19 66 7 355 5 429 -3z m56 -57 l67 -6 0 -61 0 -61
-350 0 -350 0 0 63 c0 35 4 62 10 62 6 0 10 -25 10 -55 0 -52 1 -55 25 -55 24
0 25 3 25 54 0 44 4 55 18 59 27 7 469 8 545 0z m-20 -150 c59 -5 67 -8 67
-26 0 -11 15 -33 33 -48 17 -15 29 -30 26 -33 -3 -3 -183 -5 -400 -4 l-394 3
39 36 c26 25 37 42 33 53 -4 9 -2 16 4 16 5 0 13 -8 16 -17 4 -11 -4 -25 -25
-43 -39 -32 -40 -40 -6 -40 35 0 85 51 77 78 -4 17 1 21 29 25 56 7 429 7 501
0z m-643 -183 c0 -49 1 -50 30 -50 29 0 30 1 30 50 l0 50 355 0 355 0 0 -54 0
-54 -67 -4 c-38 -1 -215 -2 -395 0 l-328 3 0 54 c0 30 5 55 10 55 6 0 10 -22
10 -50z m20 -105 c0 -8 -18 -26 -40 -40 -48 -30 -51 -45 -10 -45 17 0 30 4 30
10 0 5 18 21 41 36 26 16 39 30 35 40 -5 12 44 14 339 14 322 0 345 -1 345
-17 0 -10 16 -27 37 -38 48 -26 52 -42 11 -50 -42 -10 -837 -10 -866 -1 -33
11 -26 35 14 52 20 8 38 24 41 35 6 22 23 26 23 4z m899 -136 c56 -18 80 -38
101 -82 30 -61 27 -65 -42 -72 -104 -11 -1246 -1 -1257 10 -8 8 67 10 242 9
239 -2 243 -2 87 6 -242 11 -320 20 -320 36 0 27 56 76 105 92 45 15 105 17
549 15 351 -2 510 -6 535 -14z m-2086 -170 c37 -10 37 -10 22 -37 -29 -54 -28
-53 -82 -42 -71 15 -136 -1 -131 -33 2 -16 22 -31 77 -57 84 -41 111 -69 111
-115 0 -97 -152 -163 -312 -135 -90 16 -95 21 -71 62 15 25 26 32 44 30 127
-13 158 -13 178 -3 42 23 23 52 -59 93 -87 44 -110 67 -110 113 0 53 50 101
130 126 37 11 160 10 203 -2z m2746 -4 c7 -7 3 -22 -11 -44 -21 -32 -23 -33
-72 -27 -138 18 -246 -54 -246 -162 0 -29 7 -46 26 -65 32 -32 76 -41 164 -34
l68 6 4 -36 c4 -30 1 -36 -21 -45 -39 -15 -200 -15 -246 1 -92 31 -154 114
-140 189 19 104 100 182 225 218 51 15 234 14 249 -1z m-2339 -49 c0 -3 -9
-21 -21 -40 -20 -34 -24 -36 -73 -36 l-52 0 -24 -97 c-43 -180 -32 -163 -101
-163 -53 0 -60 2 -55 18 12 42 56 222 56 231 0 7 -24 11 -60 11 l-60 0 20 40
20 40 175 0 c96 0 175 -2 175 -4z m224 -23 c5 -26 46 -298 46 -309 0 -2 -29
-4 -65 -4 l-65 0 0 40 0 40 -57 0 c-57 0 -58 -1 -81 -40 -22 -40 -23 -40 -82
-40 -33 0 -60 4 -60 9 0 5 23 44 51 87 29 44 76 116 105 162 l54 82 74 0 c73
0 75 0 80 -27z m317 -63 c19 -49 37 -90 40 -90 4 0 9 17 12 38 4 20 14 61 22
90 l16 52 58 0 59 0 -42 -167 -42 -168 -66 -3 -65 -3 -38 101 c-21 55 -40 99
-42 96 -2 -2 -11 -30 -19 -63 -9 -32 -20 -75 -25 -95 l-10 -38 -60 0 c-53 0
-60 2 -55 18 3 9 19 73 37 142 26 100 30 130 21 152 l-10 28 88 0 88 0 33 -90z
m350 -17 c-16 -60 -31 -118 -35 -130 -7 -23 -6 -23 89 -23 l96 0 -23 -40 -23
-40 -137 0 c-119 0 -138 2 -138 16 0 16 40 180 66 272 l15 52 59 0 58 0 -27
-107z m661 47 c12 -33 26 -60 29 -60 4 0 30 27 59 60 l52 60 66 0 67 0 -103
-103 c-96 -96 -104 -107 -120 -167 l-17 -65 -58 -3 c-65 -3 -64 -5 -42 78 l15
59 -42 92 c-42 92 -43 92 -52 61 l-9 -31 -86 -3 c-81 -3 -86 -4 -89 -25 -3
-22 0 -23 72 -23 42 0 76 -4 76 -9 0 -5 -3 -23 -6 -40 l-6 -31 -84 0 c-46 0
-84 -4 -84 -9 0 -5 -3 -16 -6 -25 -5 -14 7 -16 95 -16 56 0 101 -2 101 -4 0
-3 -9 -21 -21 -40 l-21 -36 -144 0 c-122 0 -144 2 -144 15 0 9 14 72 32 142
25 103 29 131 20 155 l-10 28 218 0 218 0 24 -60z m938 47 c0 -6 -11 -53 -25
-102 -37 -135 -34 -145 40 -145 54 0 71 24 103 145 l29 110 56 3 c36 2 57 -1
57 -8 0 -6 -12 -58 -26 -116 -45 -178 -80 -209 -241 -209 -87 0 -105 3 -130
21 -39 29 -40 64 -7 200 l28 114 58 0 c40 0 58 -4 58 -13z m543 2 c52 -14 77
-41 77 -83 0 -69 -73 -120 -190 -133 l-59 -6 -12 -53 -12 -54 -59 0 c-32 0
-58 2 -58 5 0 3 19 80 41 170 l41 165 97 0 c53 0 113 -5 134 -11z m-3023 -455
c108 -63 23 -187 -141 -201 -33 -3 -62 -11 -64 -17 -2 -6 -9 -30 -15 -53 l-11
-43 -60 0 c-53 0 -60 2 -55 17 4 9 21 73 38 141 26 104 29 130 20 154 l-11 30
132 -4 c111 -2 138 -6 167 -24z m236 9 c-3 -10 -18 -69 -35 -130 l-30 -113 95
0 95 0 -22 -40 -23 -40 -138 0 c-109 0 -138 3 -138 14 0 7 14 67 31 132 17 65
35 136 40 157 l10 37 60 0 c53 0 60 -2 55 -17z m499 -15 c6 -39 45 -299 45
-304 0 -2 -29 -4 -65 -4 l-65 0 0 40 0 40 -57 0 c-57 0 -58 -1 -81 -40 l-23
-40 -65 0 -65 0 34 53 c19 28 68 105 110 170 l77 117 74 0 75 0 6 -32z m200
-25 c14 -31 28 -59 30 -61 2 -2 29 23 61 57 l56 61 59 0 c32 0 59 -2 59 -4 0
-3 -43 -47 -95 -97 -93 -91 -101 -104 -125 -196 l-11 -43 -58 0 -59 0 17 68
18 68 -38 82 c-59 129 -60 122 5 122 l56 0 25 -57z m566 47 c58 -16 83 -51 83
-113 -2 -85 -45 -152 -124 -193 -38 -19 -166 -31 -224 -20 -79 15 -119 82 -97
163 21 77 71 131 147 158 46 17 164 19 215 5z m449 3 c0 -5 -14 -23 -30 -40
-27 -30 -35 -33 -90 -33 -54 0 -62 -3 -69 -22 -8 -22 -6 -23 50 -26 33 -2 59
-6 59 -10 0 -3 -14 -21 -32 -39 -25 -26 -40 -33 -69 -33 -32 0 -38 -4 -43 -27
-4 -16 -12 -45 -17 -65 l-10 -38 -60 0 c-53 0 -60 2 -55 17 4 9 21 73 38 141
25 102 29 130 20 154 l-10 28 159 0 c87 0 159 -3 159 -7z m309 -33 c-31 -39
-34 -40 -95 -40 -47 0 -63 -4 -68 -16 -13 -34 -7 -39 49 -36 30 2 55 1 55 -3
0 -4 -12 -21 -26 -39 -20 -22 -38 -32 -67 -36 -40 -5 -41 -6 -56 -65 l-16 -60
-58 -3 c-37 -2 -57 1 -57 8 0 6 14 65 30 130 33 129 36 170 18 188 -9 9 25 12
155 12 l168 0 -32 -40z m326 28 c3 -3 -2 -21 -11 -40 l-16 -34 -70 0 c-45 1
-73 -3 -75 -11 -2 -6 22 -23 54 -38 78 -35 93 -51 93 -95 0 -67 -74 -110 -187
-110 -61 0 -143 14 -143 25 0 2 9 20 21 39 18 32 22 34 48 25 38 -13 133 -7
138 8 3 7 -20 23 -53 38 -78 35 -94 51 -94 95 0 73 77 112 207 107 46 -2 85
-6 88 -9z m-1591 -438 c43 0 70 12 107 47 l27 25 47 -36 c67 -52 117 -49 188
10 38 32 43 30 58 -13 20 -64 46 -92 95 -104 49 -13 50 -18 16 -84 -27 -54
-26 -141 2 -230 32 -97 33 -174 6 -248 -39 -104 -151 -183 -290 -207 -52 -9
-74 -18 -95 -40 l-27 -28 -26 29 c-22 23 -43 32 -107 44 -145 29 -231 89 -277
193 -35 78 -34 144 2 252 37 110 36 158 -4 246 l-25 55 25 9 c14 6 29 10 34
10 22 0 70 55 86 99 l17 49 52 -39 c39 -29 61 -39 89 -39z m-872 -430 c54
-250 105 -472 115 -494 9 -21 35 -57 58 -80 37 -39 74 -56 437 -201 l396 -158
394 156 c366 146 396 160 434 199 22 24 48 55 57 70 13 21 217 923 217 960 0
4 30 8 66 8 58 0 65 -2 60 -17 -3 -10 -51 -227 -106 -482 -56 -255 -111 -484
-122 -510 -12 -25 -51 -75 -87 -111 l-66 -65 -423 -169 -422 -168 -419 166
c-290 115 -433 177 -464 201 -48 37 -119 134 -136 187 -9 28 -211 951 -211
964 0 3 28 4 62 2 l61 -3 99 -455z m466 440 c54 -10 121 -20 150 -21 31 -2 51
-7 49 -13 -6 -19 -186 6 -272 38 -54 20 -40 19 73 -4z m225 4 c-4 -12 -16 -14
-62 -8 -142 17 -149 22 -39 23 93 1 107 -1 101 -15z m792 6 c-74 -15 -158 -16
-162 -2 -4 9 20 12 99 11 79 -1 94 -3 63 -9z m165 5 c0 -16 -268 -67 -298 -57
-28 9 -8 19 45 21 59 2 202 27 211 36 7 6 42 7 42 0z m-1293 -136 c-4 -103 -3
-120 12 -133 36 -33 41 -21 41 108 l0 123 49 -13 c27 -7 75 -16 107 -20 33 -4
52 -9 44 -12 -8 -3 -25 -9 -37 -13 l-22 -8 26 -57 c26 -57 43 -177 27 -186
-12 -7 -128 17 -181 37 -23 9 -53 25 -67 36 -25 20 -26 23 -26 144 0 111 2
124 16 118 15 -5 16 -21 11 -124z m1333 13 c0 -110 -2 -120 -23 -140 -29 -27
-99 -58 -162 -72 -28 -5 -60 -12 -72 -15 -22 -5 -23 -2 -23 55 0 41 8 80 25
122 14 34 25 65 25 69 0 4 -15 11 -32 15 -28 6 -17 10 78 29 61 12 124 29 140
38 16 8 32 15 37 16 4 1 7 -52 7 -117z m-1337 -176 c34 -25 109 -52 197 -71
41 -9 50 -14 37 -20 -42 -18 -246 55 -267 96 -14 25 -5 24 33 -5z m1319 -16
c-36 -30 -137 -67 -208 -77 -68 -9 -53 13 18 27 77 15 160 45 190 70 13 10 25
16 28 13 3 -3 -10 -17 -28 -33z m-1322 -150 c0 -118 1 -122 26 -145 33 -30 49
-32 34 -4 -7 13 -10 61 -8 125 3 99 4 105 23 99 11 -3 50 -13 87 -21 65 -15
67 -17 57 -41 -16 -44 -10 -164 11 -211 l19 -42 -27 6 c-144 33 -203 55 -233
90 -14 16 -15 39 -11 142 2 67 8 122 13 122 5 0 9 -54 9 -120z m1342 -2 l5
-123 -31 -28 c-18 -16 -64 -38 -106 -51 -75 -23 -140 -38 -140 -32 0 1 8 18
17 37 19 36 25 160 11 210 -8 26 -6 27 66 44 40 10 93 28 117 40 24 13 47 24
50 24 4 1 9 -54 11 -121z m-1410 -177 c7 -9 3 -6 -9 7 -13 13 -23 33 -22 45 1
18 2 17 9 -7 5 -15 15 -36 22 -45z m1481 32 c-9 -26 -23 -43 -47 -55 -17 -8
-15 -5 7 19 15 16 27 34 27 41 0 7 4 12 10 12 5 0 7 -8 3 -17z m-1333 -201
c87 -27 228 -50 378 -62 152 -12 205 -34 62 -25 -278 18 -499 70 -585 140 -11
9 2 5 30 -8 28 -14 79 -34 115 -45z m1295 48 c-46 -51 -277 -110 -505 -130
-147 -13 -171 -13 -149 0 9 5 72 15 140 20 218 19 409 60 484 105 50 29 52 29
30 5z m-278 -6 c9 -24 -10 -49 -38 -49 -24 0 -36 23 -25 51 7 19 55 18 63 -2z
m293 -555 c-8 -6 -176 -93 -373 -195 l-358 -185 -102 54 c-56 30 -209 109
-339 177 -131 67 -238 123 -238 124 0 2 116 -48 258 -111 141 -63 293 -130
337 -149 l80 -34 370 164 c204 90 372 164 375 165 3 0 -2 -5 -10 -10z"/>
<path d="M3900 4501 c-7 -37 -11 -82 -8 -100 3 -23 2 -29 -6 -21 -6 6 -10 42
-9 83 1 49 -1 64 -7 47 -20 -60 -7 -150 22 -150 6 0 20 -8 31 -17 20 -18 20
-18 2 16 -14 28 -16 48 -10 122 4 49 5 89 3 89 -3 0 -11 -31 -18 -69z"/>
<path d="M3947 4478 c-16 -90 -16 -100 -2 -129 20 -37 30 -33 15 7 -8 20 -8
46 0 94 7 36 10 79 9 95 -3 20 -10 -3 -22 -67z"/>
<path d="M4026 4500 c-5 -19 -17 -52 -27 -72 -21 -40 -25 -93 -9 -103 6 -4 10
6 10 23 0 16 9 50 21 76 11 26 19 61 17 79 l-3 32 -9 -35z"/>
<path d="M4570 4465 c-7 -9 -10 -18 -7 -21 3 -3 10 4 17 15 13 25 8 27 -10 6z"/>
<path d="M4046 4244 c-7 -19 2 -37 15 -29 12 8 12 45 0 45 -5 0 -12 -7 -15
-16z"/>
<path d="M3650 3354 c-68 -29 -105 -84 -57 -84 14 0 29 10 40 29 9 16 36 38
59 50 36 17 39 21 18 21 -14 -1 -41 -8 -60 -16z"/>
<path d="M2490 2964 c28 -12 50 -37 51 -58 1 -18 2 -18 6 -3 3 10 -4 28 -14
39 -17 21 -17 21 0 15 10 -4 32 -7 48 -7 26 0 29 -3 29 -31 0 -17 4 -28 10
-24 14 8 13 28 -2 48 -9 10 -35 18 -78 22 -36 3 -58 2 -50 -1z"/>
<path d="M4950 2932 c0 -20 29 -64 30 -45 0 6 -4 15 -10 18 -23 14 -9 35 24
35 35 0 53 -20 39 -43 -3 -7 -3 -9 2 -5 4 4 14 3 21 -2 7 -7 6 2 -4 25 -15 32
-20 35 -59 35 -35 0 -43 -3 -43 -18z"/>
<path d="M2786 2934 c-4 -15 -5 -28 -3 -31 3 -2 7 8 11 22 5 18 13 25 31 25
22 0 25 -3 20 -27 -4 -23 -4 -25 4 -8 17 36 12 45 -23 45 -28 0 -35 -4 -40
-26z"/>
<path d="M3152 3015 c-12 -25 -22 -48 -22 -50 0 -3 14 -5 30 -5 28 0 30 2 30
38 0 61 -14 67 -38 17z"/>
<path d="M3271 2965 c0 -11 4 -29 9 -40 l9 -20 0 20 c0 11 -4 29 -9 40 l-9 20
0 -20z"/>
<path d="M3078 2940 l-5 -30 59 0 c32 0 58 4 58 10 0 6 6 10 14 10 8 0 17 3
19 8 3 4 -27 5 -65 4 -61 -3 -70 -2 -65 12 4 9 3 16 -2 16 -5 0 -11 -13 -13
-30z"/>
<path d="M3223 2963 c9 -2 23 -2 30 0 6 3 -1 5 -18 5 -16 0 -22 -2 -12 -5z"/>
<path d="M3016 2933 c-17 -28 -17 -28 2 -7 10 12 27 24 38 27 17 4 17 5 -2 6
-14 1 -28 -9 -38 -26z"/>
<path d="M3700 3011 c-14 -4 -27 -17 -31 -31 -12 -42 -9 -57 5 -25 7 17 12 33
10 36 -2 4 8 9 22 12 25 5 26 3 20 -37 -5 -42 5 -27 18 27 7 29 2 31 -44 18z"/>
<path d="M3550 2993 c1 -12 29 -59 30 -50 0 5 -5 17 -10 28 -9 15 -7 19 5 19
9 0 22 -15 30 -32 8 -18 14 -28 15 -21 1 29 -24 63 -47 63 -12 0 -23 -3 -23
-7z"/>
<path d="M3410 2987 c0 -1 -4 -18 -10 -36 -5 -19 -6 -30 -1 -25 5 5 11 18 13
29 2 13 12 21 31 23 26 3 26 2 17 -24 -6 -15 -8 -29 -6 -32 6 -5 26 42 26 59
0 5 -16 9 -35 9 -19 0 -35 -1 -35 -3z"/>
<path d="M3884 3032 c-28 -3 -33 -8 -42 -45 -6 -23 -9 -43 -6 -46 2 -2 4 1 4
8 0 7 5 9 12 5 7 -4 8 -3 4 5 -5 7 -5 23 -2 37 5 17 13 24 31 24 14 0 25 -5
25 -11 0 -5 -3 -8 -7 -6 -5 3 -8 -11 -9 -31 l-1 -37 14 34 c21 50 14 67 -23
63z"/>
<path d="M4176 3004 c-4 -19 -10 -43 -13 -51 -4 -10 -2 -14 4 -10 6 4 13 25
17 47 5 34 10 40 30 40 19 0 25 -6 28 -30 3 -18 0 -31 -9 -34 -7 -3 -13 -11
-12 -18 0 -10 2 -10 6 0 3 8 31 12 89 12 68 0 84 3 84 15 0 12 -15 15 -76 15
-76 0 -76 0 -72 25 5 23 2 25 -32 25 -35 0 -38 -2 -44 -36z m181 -31 c-20 -2
-52 -2 -70 0 -17 2 0 4 38 4 39 0 53 -2 32 -4z"/>
<path d="M4571 2988 c17 -32 23 -37 15 -11 -6 18 -3 21 16 17 21 -4 21 -4 3 5
-36 17 -47 14 -34 -11z"/>
<path d="M4634 2989 c-3 -5 2 -9 10 -9 19 0 21 -11 4 -28 -6 -6 -9 -14 -7 -17
3 -2 15 8 27 24 l21 29 -25 5 c-13 2 -27 0 -30 -4z"/>
<path d="M4580 2939 c0 -5 5 -7 10 -4 6 3 10 8 10 11 0 2 -4 4 -10 4 -5 0 -10
-5 -10 -11z"/>
<path d="M5714 3023 c-28 -4 -33 -9 -39 -40 -3 -19 -4 -37 -1 -40 2 -3 8 11
11 31 6 30 11 36 32 36 24 0 25 -2 19 -37 -4 -24 -3 -32 2 -23 13 21 23 80 14
78 -4 0 -21 -3 -38 -5z"/>
<path d="M5445 2989 l-30 -8 32 3 c30 2 32 0 28 -23 -5 -22 -4 -23 4 -6 12 25
13 45 4 44 -5 -1 -21 -5 -38 -10z"/>
<path d="M5410 2955 c0 -8 2 -15 4 -15 2 0 6 7 10 15 3 8 1 15 -4 15 -6 0 -10
-7 -10 -15z"/>
<path d="M5956 3048 c-11 -43 -7 -48 33 -48 73 0 87 63 15 68 -36 3 -42 0 -48
-20z"/>
<path d="M5914 3023 c-3 -10 -9 -25 -14 -34 -7 -14 1 -16 59 -18 61 -2 72 1
100 25 18 14 30 28 27 31 -2 2 -15 -7 -29 -21 -22 -22 -35 -26 -83 -26 l-56 0
6 30 c6 32 -1 41 -10 13z"/>
<path d="M5845 2989 c-4 -22 -5 -43 -2 -45 3 -3 8 13 12 35 5 30 12 41 28 44
19 4 18 4 -5 6 -23 1 -27 -4 -33 -40z"/>
<path d="M6109 3011 c25 -16 -48 -44 -134 -51 l-80 -7 70 -1 c73 -2 136 18
164 51 12 15 11 17 -10 17 -18 0 -20 -3 -10 -9z"/>
<path d="M2907 2623 c-2 -5 -7 -20 -11 -35 -6 -27 -5 -28 33 -28 36 0 71 19
71 39 0 25 -81 45 -93 24z"/>
<path d="M3002 2569 c-21 -26 -29 -29 -83 -29 -58 0 -59 0 -53 25 6 23 4 25
-30 25 -33 0 -36 -3 -46 -41 -6 -23 -9 -43 -6 -46 2 -3 10 13 16 36 9 34 15
41 35 41 20 0 24 -5 22 -22 -2 -21 3 -23 68 -29 l70 -5 -70 -4 -70 -4 60 -3
c68 -5 137 17 160 50 22 31 19 37 -17 36 -24 0 -39 -8 -56 -30z m50 -9 c-44
-41 -71 -41 -40 0 14 20 30 30 47 30 l26 -1 -33 -29z"/>
<path d="M3177 2571 c-3 -16 -9 -42 -12 -57 -4 -20 -3 -24 3 -14 5 8 12 32 16
53 6 31 11 37 33 37 22 0 24 -3 19 -25 -16 -67 -18 -80 -12 -74 4 4 13 30 21
58 l13 51 -38 0 c-33 0 -38 -3 -43 -29z"/>
<path d="M3672 2575 c-12 -25 -22 -48 -22 -50 0 -3 14 -5 30 -5 27 0 30 3 29
33 0 17 -4 40 -7 50 -6 14 -12 9 -30 -28z"/>
<path d="M3571 2548 c-36 -58 -32 -64 5 -8 16 24 34 40 46 40 20 0 20 -1 -1
-36 -12 -20 -20 -38 -19 -40 2 -2 16 17 30 40 l26 44 -28 4 c-26 4 -33 -1 -59
-44z"/>
<path d="M3731 2563 c0 -16 5 -37 10 -48 7 -15 8 -8 4 23 -5 41 -4 43 17 40
18 -2 24 -10 26 -38 2 -19 7 -39 12 -44 6 -6 7 7 4 30 -9 60 -11 64 -44 64
-26 0 -30 -3 -29 -27z"/>
<path d="M3962 2556 c6 -11 14 -31 19 -45 5 -18 8 -20 8 -8 1 10 -4 27 -9 38
-9 16 -7 19 9 19 11 0 21 -6 24 -12 3 -10 9 -10 27 0 29 18 36 9 16 -20 -9
-12 -16 -27 -16 -33 0 -5 9 5 20 23 11 17 24 32 30 32 5 0 10 5 10 10 0 15
-57 12 -63 -2 -4 -9 -8 -10 -14 -2 -4 6 -22 13 -40 16 -29 4 -31 3 -21 -16z"/>
<path d="M4380 2603 c-37 -33 -53 -90 -36 -125 9 -18 21 -24 58 -26 65 -4 108
33 115 101 7 61 -6 77 -63 77 -34 0 -51 -6 -74 -27z"/>
<path d="M4231 2523 c2 -24 2 -25 6 -5 3 17 11 22 34 22 25 0 29 -4 29 -27 0
-31 5 -28 14 10 6 26 5 27 -39 27 -43 0 -45 -1 -44 -27z"/>
<path d="M4538 2522 c-3 -11 0 -19 7 -19 8 0 11 7 7 15 -3 10 -1 13 6 8 7 -4
12 -2 12 3 0 19 -27 12 -32 -7z"/>
<path d="M4592 2523 c11 -3 15 -11 12 -21 -5 -15 -4 -15 5 -2 16 23 13 30 -11
29 -17 -1 -18 -3 -6 -6z"/>
<path d="M4711 2513 c0 -11 3 -13 6 -5 2 6 16 12 29 12 14 0 23 -4 19 -9 -3
-5 -1 -12 5 -16 5 -3 10 1 10 9 0 11 14 16 48 19 30 2 18 4 -35 5 -73 2 -83 0
-82 -15z"/>
<path d="M5047 2523 c-4 -3 -7 -11 -7 -17 0 -6 5 -5 12 2 17 17 62 16 52 0 -6
-10 -5 -10 7 -1 8 6 35 13 59 16 29 2 15 4 -36 5 -44 1 -84 -1 -87 -5z"/>
<path d="M5478 2541 c-27 -6 -27 -6 15 -23 28 -12 36 -13 24 -4 -38 29 24 31
63 2 9 -6 5 -1 -8 12 -23 22 -44 25 -94 13z"/>
<path d="M4188 2291 c-1 -5 -21 -20 -42 -35 -54 -36 -108 -35 -168 3 l-46 29
-6 -23 c-9 -35 -56 -86 -93 -102 l-33 -13 16 -33 c31 -58 30 -161 -1 -267 -32
-108 -30 -155 11 -237 42 -87 114 -134 254 -165 46 -11 93 -26 102 -35 17 -15
20 -15 41 4 12 12 42 24 67 28 98 16 171 46 218 88 93 86 114 192 67 340 -34
104 -33 121 9 262 5 16 -2 24 -36 40 -33 15 -49 31 -66 67 l-24 48 -34 -26
c-35 -27 -96 -41 -138 -30 -14 3 -41 20 -60 36 -19 17 -36 26 -38 21z m48 -66
c52 -35 125 -37 180 -6 l30 18 21 -36 c17 -29 46 -54 80 -66 1 -1 -4 -23 -12
-50 -22 -70 -18 -133 11 -226 47 -148 17 -258 -89 -323 -41 -25 -216 -78 -257
-77 -31 0 -206 44 -232 57 -45 24 -98 75 -119 116 -32 63 -34 113 -5 203 14
44 28 98 32 121 5 35 -8 130 -23 171 -3 7 2 13 10 13 8 0 33 20 54 44 29 33
43 42 54 35 54 -35 144 -30 199 12 14 10 26 19 27 19 1 0 19 -11 39 -25z"/>
<path d="M4150 2183 c-49 -25 -109 -29 -154 -10 -28 12 -32 11 -67 -24 -35
-35 -37 -40 -28 -76 15 -67 10 -145 -15 -216 -14 -38 -21 -67 -18 -65 4 2 115
84 246 183 l239 180 -43 7 c-23 4 -59 16 -79 25 -35 18 -37 18 -81 -4z"/>
<path d="M4150 1953 l-285 -215 1 -39 c1 -41 35 -94 86 -132 l25 -19 256 191
255 192 4 92 c5 88 4 93 -20 120 -14 15 -28 27 -31 26 -3 0 -134 -97 -291
-216z m220 46 l0 -70 33 25 c40 31 47 32 47 8 0 -11 -25 -38 -60 -65 l-60 -47
0 84 c0 47 -5 88 -10 91 -10 6 26 44 43 45 4 0 7 -32 7 -71z m-80 -82 c0 -59
-4 -97 -12 -105 -19 -19 -28 -14 -28 18 0 30 0 30 -25 14 -20 -13 -25 -25 -25
-55 0 -28 -5 -41 -20 -49 -19 -10 -20 -8 -20 68 0 43 -5 83 -10 88 -7 7 0 17
20 32 l30 23 0 -36 0 -35 25 16 c19 12 25 25 25 53 0 35 14 61 32 61 4 0 8
-42 8 -93z m-170 -131 c0 -89 -1 -95 -25 -110 -25 -16 -26 -16 -48 21 l-22 38
-3 -55 c-2 -34 -10 -62 -20 -74 -16 -17 -17 -13 -22 75 -5 84 -4 96 13 112 26
23 30 22 51 -18 11 -19 23 -35 28 -35 4 0 8 26 8 58 0 53 11 82 32 82 4 0 8
-42 8 -94z"/>
<path d="M4261 1712 c-185 -140 -229 -178 -215 -183 38 -15 164 -40 172 -35 5
3 44 12 87 21 44 9 95 25 115 35 70 36 120 112 120 183 0 26 -37 159 -43 156
-1 0 -107 -80 -236 -177z"/>
<path d="M4609 1516 c-2 -7 -5 -22 -8 -33 -2 -5 -6 1 -11 12 -7 16 -9 17 -9 3
-1 -9 3 -19 8 -22 14 -9 41 4 41 19 0 14 -19 31 -21 21z"/>
<path d="M4191 614 c0 -11 3 -14 6 -6 3 7 2 16 -1 19 -3 4 -6 -2 -5 -13z"/>
</g>
</svg>
